<?xml version="1.0" standalone="no"?>
<!DOCTYPE svg PUBLIC "-//W3C//DTD SVG 20010904//EN"
 "http://www.w3.org/TR/2001/REC-SVG-20010904/DTD/svg10.dtd">
<svg version="1.0" xmlns="http://www.w3.org/2000/svg"
 width="300.000000pt" height="82.000000pt" viewBox="0 0 300.000000 82.000000"
 preserveAspectRatio="xMidYMid meet">
<metadata>
Created by potrace 1.10, written by Peter Selinger 2001-2011
</metadata>
<g transform="translate(0.000000,82.000000) scale(0.100000,-0.100000)"
fill="#000000" stroke="none">
<path d="M1297 502 l-137 -137 138 -138 137 -137 138 138 137 137 -138 138
-137 137 -138 -138z m260 -14 c62 -62 113 -117 113 -123 0 -6 -51 -61 -114
-124 -80 -80 -118 -111 -127 -105 -23 13 -229 218 -229 228 0 11 225 236 236
236 5 0 59 -51 121 -112z"/>
<path d="M1355 455 c-41 -43 -75 -83 -75 -90 0 -15 141 -155 157 -155 7 0 46
34 88 76 l75 76 -20 27 c-18 24 -78 83 -127 125 l-23 19 -75 -78z m153 -157
l-70 -71 -69 70 -70 69 68 72 67 72 72 -71 71 -71 -69 -70z"/>
<path d="M235 328 l73 -183 37 0 37 0 74 179 c41 98 74 180 74 182 0 2 -22 4
-49 4 l-49 0 -43 -115 -42 -116 -42 113 -41 113 -52 3 -51 3 74 -183z m46 54
c36 -90 54 -122 68 -122 12 0 46 70 71 142 15 44 29 68 42 71 27 8 28 -3 3
-58 -13 -27 -37 -87 -55 -132 -37 -95 -52 -118 -72 -111 -17 7 -131 284 -123
298 14 23 32 -1 66 -88z"/>
<path d="M668 378 c4 -152 17 -190 72 -220 47 -25 153 -25 200 0 58 32 74 77
78 224 l4 128 -51 0 -51 0 0 -129 c0 -123 -1 -131 -22 -145 -32 -23 -94 -20
-118 4 -18 18 -20 33 -20 145 l0 125 -48 0 -48 0 4 -132z m60 -3 c3 -112 10
-135 50 -164 37 -26 80 -27 121 -3 41 23 51 57 51 173 0 87 2 97 18 95 15 -3
17 -16 16 -117 0 -157 -21 -186 -135 -194 -67 -4 -126 24 -145 70 -17 42 -17
225 0 237 19 12 22 0 24 -97z"/>
<path d="M1858 325 l-3 -185 48 0 49 0 -4 115 c-3 108 2 136 16 99 3 -9 39
-60 79 -115 l72 -99 48 0 47 0 0 185 0 185 -51 0 -51 0 3 -115 c2 -63 3 -115
3 -115 -1 0 -39 52 -85 115 l-83 115 -42 0 -43 0 -3 -185z m88 142 c8 -17 130
-179 144 -192 19 -17 22 -17 37 -2 13 13 16 34 14 107 -2 82 0 90 17 90 17 0
18 -10 18 -150 l0 -150 -23 0 c-26 0 -28 2 -120 124 -38 50 -73 92 -80 94 -22
6 -33 -36 -34 -128 -1 -79 -3 -91 -17 -88 -15 3 -17 22 -17 148 -1 80 1 149 3
153 3 7 54 1 58 -6z"/>
<path d="M2439 487 c-131 -69 -122 -285 14 -336 50 -19 130 -14 168 12 42 28
79 81 81 118 1 16 2 36 2 45 1 13 -14 16 -87 17 l-87 2 0 -37 c0 -37 1 -38 35
-38 39 0 44 -9 17 -33 -26 -24 -83 -22 -110 3 -63 59 -25 190 56 190 15 0 38
-12 54 -27 l28 -27 41 20 41 20 -28 33 c-54 64 -146 80 -225 38z m139 -13 c17
-3 40 -15 52 -27 19 -17 20 -21 7 -29 -11 -6 -27 0 -53 17 -42 29 -53 30 -98
11 -66 -28 -94 -136 -52 -201 23 -35 73 -58 112 -52 71 12 101 78 44 98 -45
16 -36 27 24 28 64 0 74 -15 46 -76 -51 -114 -237 -98 -278 23 -45 132 53 236
196 208z"/>
<path d="M1223 3 c120 -2 314 -2 430 0 117 1 19 2 -218 2 -236 0 -332 -1 -212
-2z"/>
</g>
</svg>
