<svg id="Layer_5" data-name="Layer 5" xmlns="http://www.w3.org/2000/svg" width="7.2923in" height="6.9863in" viewBox="0 0 525.0469 503.015"><defs><style>.cls-1{fill:#73ba44;}.cls-2{fill:#18538c;}</style></defs><g id="Layer_10" data-name="Layer 10"><path class="cls-1" d="M555.0236,257.5157s24.3944,38.578,24.3944,59.7171,29.5946-105.6952,29.5946-105.6952-46.6748,53.906-53.989,45.9781" transform="translate(-129.793 -36.7701)"/><circle class="cls-1" cx="482.3905" cy="163.141" r="17.9682"/></g><g id="Layer_9" data-name="Layer 9"><path class="cls-1" d="M535,236l.2258-119.4111c.7073-1.4193-36.25,70.08-33.2474,75.3761,3.0471,5.3744,7.1224,20.2694,7.34,20.8147,1.219,3.0557.0266,6.09,6.6518,11.9243,2.357,2.0756,8.5767,4.0119,13.03,8.296" transform="translate(-129.793 -36.7701)"/><path class="cls-1" d="M538.2188,121.2715c-11.669,0-20.4678-8.37-20.4678-19.4683a20.4683,20.4683,0,0,1,40.9365,0C558.6875,112.9019,549.8877,121.2715,538.2188,121.2715Zm0-34.9365a15.4852,15.4852,0,0,0-15.4678,15.4682c0,8.2481,6.6494,14.4683,15.4678,14.4683s15.4687-6.22,15.4687-14.4683A15.4861,15.4861,0,0,0,538.2188,86.335Z" transform="translate(-129.793 -36.7701)"/></g><g id="Layer_8" data-name="Layer 8"><path class="cls-1" d="M384.1315,137.3714l13.5032-82.5288,20.3527,78.4605S393.6167,127.7152,384.1315,137.3714Z" transform="translate(-129.793 -36.7701)"/><circle class="cls-1" cx="268.7029" cy="17.9691" r="17.9682"/></g><g id="Layer_7" data-name="Layer 7"><path class="cls-1" d="M269.0377,218.3671,260.8119,105.956s35.3668,79.8618,47.294,91.626-18.1814.6908-39.0682,20.7851" transform="translate(-129.793 -36.7701)"/><path class="cls-1" d="M259.2754,111.4829a20.468,20.468,0,1,1,20.4683-20.4678A20.4912,20.4912,0,0,1,259.2754,111.4829Zm0-35.936a15.468,15.468,0,1,0,15.4683,15.4682A15.4857,15.4857,0,0,0,259.2754,75.5469Z" transform="translate(-129.793 -36.7701)"/></g><g id="Layer_6" data-name="Layer 6"><path class="cls-1" d="M233.8791,249.0618s-24.3944,38.578-24.3944,59.717S179.89,203.0836,179.89,203.0836s46.6748,53.9061,53.989,45.9782" transform="translate(-129.793 -36.7701)"/><circle class="cls-1" cx="46.9263" cy="154.687" r="17.9682"/></g><path class="cls-2" d="M168.4419,511.5605l18.2173-47.6962h19.5215l-24.2994,64.0625q-4.1858,10.9292-13.2539,10.9287t-13.3706-10.6963L129.793,463.8643h19.7578Z" transform="translate(-129.793 -36.7701)"/><path class="cls-2" d="M246.7554,520.7178a14.7839,14.7839,0,0,0,11.7173-5.4639,18.9031,18.9031,0,0,0,4.6757-12.6728V464.2129h18.37v38.3682a36.2462,36.2462,0,0,1-9.8829,25.4619,33.5464,33.5464,0,0,1-49.7612,0,36.2391,36.2391,0,0,1-9.8823-25.4619V464.2129h18.37v38.3682a18.9013,18.9013,0,0,0,4.6743,12.6728A14.7836,14.7836,0,0,0,246.7554,520.7178Z" transform="translate(-129.793 -36.7701)"/><path class="cls-2" d="M325.2334,462.12a35.7355,35.7355,0,0,1,26.7988,11.4522,39.5391,39.5391,0,0,1,0,54.7031,37.0216,37.0216,0,0,1-53.6562,0,39.3891,39.3891,0,0,1,0-54.7031A35.918,35.918,0,0,1,325.2334,462.12Zm0,59.2949a18.0879,18.0879,0,0,0,13.752-6.0849,21.0759,21.0759,0,0,0,0-28.752,18.71,18.71,0,0,0-27.6221,0,21.08,21.08,0,0,0,0,28.752A18.2137,18.2137,0,0,0,325.2334,521.415Z" transform="translate(-129.793 -36.7701)"/><path class="cls-2" d="M403.5947,461.8877a32.6567,32.6567,0,0,1,24.8809,11.0449,36.3993,36.3993,0,0,1,9.8818,25.5791v38.8321H419.9883V498.5117a19.1279,19.1279,0,0,0-4.6758-12.7314,15.1943,15.1943,0,0,0-23.437,0,19.1264,19.1264,0,0,0-4.6743,12.7314v38.8321h-18.37V498.5117a36.6514,36.6514,0,0,1,10.0567-25.7529A32.3461,32.3461,0,0,1,403.5947,461.8877Z" transform="translate(-129.793 -36.7701)"/><path class="cls-2" d="M479.166,463.748h34.9961v18.37H479.0879a14.8769,14.8769,0,0,0-11.8281,5.5586,19.8976,19.8976,0,0,0,.0058,25.74,14.898,14.898,0,0,0,11.8418,5.5566H495.792v-9.1845H478.585v-18.37h35.5771v45.9249H479.166a32.5723,32.5723,0,0,1-24.8808-10.9288,38.0618,38.0618,0,0,1,0-51.68A32.4939,32.4939,0,0,1,479.166,463.748Z" transform="translate(-129.793 -36.7701)"/><path class="cls-2" d="M531.7168,515.4863a11.7116,11.7116,0,1,1-8.3125,3.43A11.3271,11.3271,0,0,1,531.7168,515.4863Z" transform="translate(-129.793 -36.7701)"/><path class="cls-1" d="M552.18,463.748h18.3691v73.5958H552.18Z" transform="translate(-129.793 -36.7701)"/><path class="cls-1" d="M617.0537,462.12a35.7383,35.7383,0,0,1,26.8,11.4522,39.54,39.54,0,0,1,0,54.7031,37.0216,37.0216,0,0,1-53.6562,0,39.3865,39.3865,0,0,1,0-54.7031A35.915,35.915,0,0,1,617.0537,462.12Zm0,59.2949a18.0856,18.0856,0,0,0,13.752-6.0849,21.0732,21.0732,0,0,0,0-28.752,18.71,18.71,0,0,0-27.6221,0,21.0811,21.0811,0,0,0,0,28.752A18.2144,18.2144,0,0,0,617.0537,521.415Z" transform="translate(-129.793 -36.7701)"/><g id="lAb9om.tif"><path class="cls-2" d="M215,317l.9224-11.7949c7.1115-48.1567,40.8825-85.7822,88.68-97.8746,7.0585-1.7857,10.1492-5.5664,12.9283-11.7548,17.8618-39.7742,60.0528-63.098,103.346-57.6017,42.4115,5.3844,77.0917,38.8031,85.1393,81.1977.8018,4.2237,4.7678,9.235,8.6368,11.2655,28.4316,14.9211,47.0705,37.3531,54.964,68.584,1.1937,4.7227,2.4755,9.4232,3.7165,14.1339v19.0313a59.158,59.158,0,0,0-2.0461,6.9521c-11.8814,70.1785-86.4935,107.5044-149.0743,74.1887-6.5928-3.51-10.2129-2.3806-15.5663,1.9016-58.021,46.4122-144.813,28.0488-178.33-38.33-6.968-13.8-12.3162-28.8984-14.3469-44.712M395.3526,350.83c13.0891,12.7445,23.9524,24.6056,36.1508,34.8808,15.9836,13.4637,35.4248,15.2013,54.9961,11,33.6942-7.2337,57.2585-35.471,59.34-69.4864,2.042-33.37-18.5707-63.8487-51.4936-75.44-8.5535-3.0114-13.3867-7.5791-14.0616-17.2445-3.1388-44.9515-37.3994-74.1679-82.1388-69.3672-24.1416,2.59-41.823,15.817-54.5637,38.0985,28.445,5.9328,54.7064,13.11,73.9986,35.3534,2.7459-4.37,4.7638-7.5809,6.7385-10.7232,11.5566,10.9858,20.6183,30.6209,19.3213,42.703-.4646,4.3283-4.0609,10.3716-7.775,11.9211-11.905,4.9666-38.4147-5.4261-46.8046-18.1689l9.218-6.3357c-32.4448-32.5366-93.3994-38.9342-131.4371,1.0143-35.801,37.5994-33.1329,98.1484,5.6816,132.1543,40.7843,35.7318,98.7611,24.7669,120.0777-.9259-5.6993-8.9176-11.3527-17.7634-17.1218-26.79l-11.355,6.2479c-7.1031-16.0614-8.2746-31.39-4.4381-47.2631,1.4388-5.9528,5.3559-8.5788,10.9205-6.8493,15.7554,4.8968,27.8077,15.0091,39.4033,27.716Z" transform="translate(-129.793 -36.7701)"/></g></svg>