<svg id="Layer_1" data-name="Layer 1" xmlns="http://www.w3.org/2000/svg" width="579" height="579" viewBox="0 0 579 579"><defs><style>.cls-1{fill:#18538c;}.cls-2{fill:#73ba44;}</style></defs><circle class="cls-1" cx="289.5" cy="289.5" r="289.5"/><path class="cls-2" d="M495.5494,333.3376s26.772,42.3381,26.772,65.5375S554.8006,282.878,554.8006,282.878s-51.2242,59.16-59.2512,50.46" transform="translate(-33 -37)"/><circle class="cls-2" cx="525.2805" cy="233.1184" r="19.7195"/><path class="cls-2" d="M473.5741,309.7248l.2479-131.05c.7761-1.5575-39.7834,76.91-36.488,82.7229,3.3441,5.8982,7.8166,22.245,8.0554,22.8434,1.3379,3.3535.0292,6.6835,7.3,13.0866,2.5866,2.2779,9.4126,4.4029,14.3,9.1046" transform="translate(-33 -37)"/><path class="cls-2" d="M308.0008,201.4831,322.82,110.91l22.3365,86.1079S318.4105,190.8857,308.0008,201.4831Z" transform="translate(-33 -37)"/><circle class="cls-2" cx="289.4015" cy="65.6142" r="19.7195"/><path class="cls-2" d="M181.6891,290.3732l-9.0276-123.3675s38.8139,87.6457,51.9036,100.5566-19.9535.7581-42.876,22.8109" transform="translate(-33 -37)"/><path class="cls-2" d="M143.1037,324.06s-26.772,42.3381-26.772,65.5375S83.8525,273.6,83.8525,273.6s51.2241,59.16,59.2512,50.46" transform="translate(-33 -37)"/><circle class="cls-2" cx="47.3726" cy="223.8404" r="19.7195"/><g id="lAb9om.tif"><path class="cls-2" d="M122.3845,398.62l1.0123-12.9445c7.8046-52.85,44.8672-94.1432,97.3231-107.4141,7.7466-1.96,11.1385-6.1091,14.1884-12.9006,19.6029-43.6509,65.9061-69.248,113.4189-63.216,46.5453,5.9092,84.6057,42.5852,93.4377,89.1119.88,4.6353,5.2325,10.1351,9.4786,12.3635,31.2028,16.3753,51.6583,40.9938,60.3212,75.2687,1.31,5.183,2.7168,10.3416,4.0787,15.5115v20.8863a64.9371,64.9371,0,0,0-2.2454,7.63c-13.04,77.0186-94.9239,117.9826-163.6043,81.42-7.2354-3.8519-11.2083-2.6127-17.0835,2.087-63.6761,50.9358-158.9276,30.7826-195.7117-42.0663-7.6471-15.1447-13.5166-31.7152-15.7451-49.07m199.0622,20.4605c14.3649,13.9866,26.2871,27.0038,39.6743,38.2805,17.5416,14.776,38.8776,16.6829,60.3565,12.0716,36.9783-7.9388,62.8394-38.9283,65.1238-76.2591,2.2411-36.6229-20.3807-70.0718-56.5125-82.7927-9.3872-3.305-14.6915-8.3179-15.4322-18.9253-3.4448-49.3328-41.0446-81.3968-90.1446-76.1282-26.4947,2.8429-45.8995,17.3585-59.882,41.8119,31.2175,6.5109,60.0385,14.3875,81.2112,38.7991l7.3952-11.7683c12.683,12.0565,22.6279,33.6054,21.2045,46.8651-.51,4.75-4.4567,11.3825-8.5328,13.083-13.0653,5.4507-42.1589-5.9549-51.3665-19.94l10.1164-6.9533c-35.6071-35.7079-102.5028-42.729-144.2479,1.1132-39.2905,41.2641-36.3623,107.7147,6.2353,145.0351,44.76,39.2145,108.3871,27.1809,131.7814-1.0162-6.2547-9.7867-12.4592-19.4947-18.7906-29.4012-4.0635,2.236-7.8489,4.3188-12.4618,6.8569-7.7953-17.6268-9.0811-34.45-4.8706-51.87,1.5791-6.533,5.8779-9.415,11.9849-7.5169,17.291,5.3741,30.518,16.472,43.2439,30.4175Z" transform="translate(-33 -37)"/></g><circle class="cls-2" cx="139.5946" cy="124.4504" r="19.7195"/><circle class="cls-2" cx="440.9907" cy="129.9055" r="19.7195"/></svg>