<svg id="Layer_1" data-name="Layer 1" xmlns="http://www.w3.org/2000/svg" width="248" height="212.6618" viewBox="0 0 248 212.6618"><defs><style>.cls-1{fill:#73ba44;}.cls-2{fill:#18538c;}</style></defs><path class="cls-1" d="M214.4757,130.3459s12.8337,20.2956,12.8337,31.4166,15.5695-55.6053,15.5695-55.6053-24.5552,28.3595-28.4032,24.1887" transform="translate(-6 -14.2134)"/><circle class="cls-1" cx="238.5471" cy="85.8271" r="9.4529"/><path class="cls-1" d="M203.9415,119.0266l.1188-62.8212c.3721-.7466-19.0709,36.8685-17.4912,39.6548,1.603,2.8274,3.7471,10.6636,3.8615,10.95.6413,1.6076.014,3.2039,3.5,6.2733,1.24,1.092,4.5121,2.1106,6.8548,4.3645" transform="translate(-6 -14.2134)"/><path class="cls-1" d="M205.6348,58.6689c-6.1389,0-10.7679-4.4032-10.7679-10.2421a10.7682,10.7682,0,1,1,21.5364,0C216.4033,54.2657,211.7738,58.6689,205.6348,58.6689Zm0-18.38a8.1467,8.1467,0,0,0-8.1374,8.1377c0,4.3393,3.4982,7.6117,8.1374,7.6117s8.138-3.2724,8.138-7.6117A8.1471,8.1471,0,0,0,205.6348,40.2891Z" transform="translate(-6 -14.2134)"/><path class="cls-1" d="M124.5708,67.139l7.1039-43.4178,10.7074,41.2775S129.5609,62.0589,124.5708,67.139Z" transform="translate(-6 -14.2134)"/><circle class="cls-1" cx="126.1278" cy="9.4534" r="9.4529"/><path class="cls-1" d="M64.0209,109.75,59.6934,50.6116S78.3,92.6262,84.5743,98.8153s-9.565.3634-20.5534,10.9348" transform="translate(-6 -14.2134)"/><path class="cls-1" d="M58.885,53.5192A10.7681,10.7681,0,1,1,69.6532,42.7513,10.78,10.78,0,0,1,58.885,53.5192Zm0-18.9056a8.1376,8.1376,0,1,0,8.1378,8.1377A8.1468,8.1468,0,0,0,58.885,34.6136Z" transform="translate(-6 -14.2134)"/><path class="cls-1" d="M45.5243,125.8984S32.6906,146.1939,32.6906,157.315s-15.57-55.6054-15.57-55.6054,24.5552,28.36,28.4032,24.1888" transform="translate(-6 -14.2134)"/><circle class="cls-1" cx="9.4529" cy="81.3796" r="9.4529"/><g id="lAb9om.tif"><path class="cls-2" d="M35.5921,161.64l.4853-6.2052c3.7413-25.3349,21.5079-45.1293,46.6537-51.491,3.7134-.9395,5.3394-2.9285,6.8015-6.1841A52.3983,52.3983,0,0,1,143.902,67.456c22.3124,2.8326,40.5574,20.414,44.7911,42.7174a9.7481,9.7481,0,0,0,4.5438,5.9267c14.9576,7.85,24.7634,19.6512,28.9161,36.0815.628,2.4846,1.3023,4.9574,1.9552,7.4357V169.63a31.1277,31.1277,0,0,0-1.0764,3.6575c-6.2507,36.92-45.5036,56.5571-78.4268,39.03-3.4684-1.8464-5.3729-1.2524-8.1893,1-30.5243,24.4171-76.1849,14.7563-93.8181-20.1652A73.2547,73.2547,0,0,1,35.05,169.63m95.4242,9.8082c6.8861,6.7047,12.6012,12.9447,19.0187,18.35,8.4088,7.0832,18.6367,7.9973,28.933,5.7868a39.4274,39.4274,0,0,0,31.2183-36.5562c1.0743-17.5559-9.77-33.59-27.09-39.6883-4.5-1.5843-7.0426-3.9873-7.3976-9.0721-1.6514-23.6487-19.6755-39.0192-43.2126-36.4936-12.7007,1.3629-22.0028,8.3212-28.7055,20.0433,14.9647,3.1212,28.7806,6.897,38.93,18.5992l3.545-5.6414c6.08,5.7795,10.8471,16.1094,10.1648,22.4657-.2444,2.2771-2.1364,5.4564-4.09,6.2716-6.2631,2.6128-20.21-2.8546-24.6235-9.5585l4.8495-3.3332c-17.0689-17.1173-49.1366-20.483-69.1479.5336-18.8347,19.7807-17.431,51.6351,2.989,69.5253,21.4563,18.7982,51.9574,13.03,63.1719-.4871-2.9983-4.6915-5.9726-9.3452-9.0076-14.094l-5.9738,3.287a37.402,37.402,0,0,1-2.3349-24.8647c.757-3.1318,2.8177-4.5133,5.7452-3.6034,8.2888,2.5761,14.6294,7.8962,20.73,14.5812Z" transform="translate(-6 -14.2134)"/></g></svg>